<?xml version="1.0" standalone="no"?>
<!DOCTYPE svg PUBLIC "-//W3C//DTD SVG 20010904//EN"
 "http://www.w3.org/TR/2001/REC-SVG-20010904/DTD/svg10.dtd">
<svg version="1.0" xmlns="http://www.w3.org/2000/svg"
 width="512.000000pt" height="512.000000pt" viewBox="0 0 512.000000 512.000000"
 preserveAspectRatio="xMidYMid meet">

<g transform="translate(0.000000,512.000000) scale(0.100000,-0.100000)"
fill="#000000" stroke="none">
<path d="M2385 5109 c-494 -68 -918 -418 -1075 -887 -63 -189 -65 -213 -65
-707 l0 -450 32 -67 c52 -111 163 -204 266 -223 34 -7 37 -11 53 -64 9 -31 26
-82 39 -113 l23 -57 -491 -3 -492 -3 -67 -32 c-91 -43 -151 -101 -193 -187
-42 -84 -59 -171 -51 -245 4 -29 74 -287 156 -572 l149 -518 -55 -82 c-71
-106 -124 -211 -164 -327 l-33 -92 -136 0 c-110 0 -144 -4 -176 -19 -79 -36
-105 -91 -105 -221 0 -130 26 -185 105 -221 38 -18 133 -19 2453 -19 2149 0
2417 2 2449 15 86 36 113 90 113 225 0 71 -5 105 -19 135 -39 86 -87 105 -264
105 l-134 0 -33 92 c-40 116 -93 221 -163 327 l-56 82 150 520 c82 286 152
543 155 572 8 72 -10 160 -51 243 -42 86 -102 144 -193 187 l-67 32 -492 3
-491 3 23 57 c13 31 30 82 39 113 16 53 19 57 53 64 103 19 214 112 266 223
l32 67 0 450 c0 494 -2 518 -65 707 -148 442 -529 776 -995 873 -95 20 -332
28 -430 14z m268 -1343 c155 -172 393 -281 686 -317 l103 -12 -4 -301 c-5
-332 -12 -374 -78 -524 l-33 -72 -767 0 -767 0 -33 72 c-66 150 -73 192 -78
524 l-4 301 103 12 c293 36 531 145 686 317 50 55 74 74 93 74 19 0 43 -19 93
-74z m-1093 -606 c0 -207 -3 -260 -13 -260 -29 0 -109 62 -137 106 -62 98 -62
210 0 308 28 44 108 106 137 106 10 0 13 -53 13 -260z m2073 230 c91 -57 141
-179 118 -284 -6 -29 -25 -74 -41 -100 -28 -44 -108 -106 -137 -106 -10 0 -13
53 -13 260 0 207 3 260 13 260 7 0 34 -13 60 -30z m-1603 -1670 c37 -37 26
-60 -105 -224 -69 -86 -125 -166 -125 -176 0 -10 56 -90 125 -176 80 -101 125
-165 125 -180 0 -31 -33 -64 -63 -64 -29 0 -45 17 -211 225 -94 117 -136 178
-136 195 0 17 48 85 151 215 83 104 156 193 162 197 22 14 57 8 77 -12z m651
2 c16 -14 22 -28 21 -53 -1 -19 -39 -194 -85 -389 -78 -339 -83 -355 -109
-370 -25 -13 -31 -13 -54 0 -51 29 -57 -10 102 678 34 147 66 181 125 134z
m501 -9 c15 -16 88 -104 162 -198 93 -116 136 -178 136 -195 0 -17 -43 -79
-136 -195 -166 -208 -182 -225 -211 -225 -30 0 -63 33 -63 64 0 15 45 79 125
180 69 86 125 166 125 176 0 10 -56 90 -125 176 -131 164 -142 187 -105 224
28 28 62 25 92 -7z m1798 -1373 c17 -17 20 -33 20 -100 0 -67 -3 -83 -20 -100
-20 -20 -33 -20 -2420 -20 -2387 0 -2400 0 -2420 20 -17 17 -20 33 -20 100 0
67 3 83 20 100 20 20 33 20 2420 20 2387 0 2400 0 2420 -20z"/>
<path d="M2070 3431 c-46 -15 -85 -39 -116 -73 -54 -57 -69 -95 -69 -178 0
-83 15 -121 69 -178 53 -57 101 -77 186 -77 85 0 133 20 186 77 43 45 64 89
71 148 5 47 7 50 42 57 47 9 196 9 244 -1 35 -6 37 -9 37 -44 0 -89 94 -206
185 -232 55 -15 150 -8 193 14 18 9 47 32 67 51 48 48 66 88 72 156 8 81 -11
140 -63 198 -59 66 -128 95 -209 89 -72 -6 -116 -26 -171 -79 l-40 -40 -97 12
c-73 8 -121 8 -194 0 l-97 -12 -40 40 c-23 21 -57 47 -76 56 -38 20 -142 29
-180 16z m149 -138 c85 -63 75 -186 -20 -236 -92 -49 -208 33 -195 137 12 104
133 159 215 99z m840 0 c85 -63 75 -186 -20 -236 -92 -49 -208 33 -195 137 12
104 133 159 215 99z"/>
</g>
</svg>
